<svg xmlns="http://www.w3.org/2000/svg" xmlns:xlink="http://www.w3.org/1999/xlink" version="1.1" x="0px" y="0px" viewBox="0 0 100 125" enable-background="new 0 0 100 100" xml:space="preserve"><path d="M70.739,33.792H29.261c-0.879,0-1.592,0.713-1.592,1.592c0,0.878,0.713,1.591,1.592,1.591h41.479  c0.879,0,1.592-0.713,1.592-1.591C72.331,34.505,71.618,33.792,70.739,33.792z"/><path d="M70.739,48.409H29.261c-0.879,0-1.592,0.712-1.592,1.591s0.713,1.592,1.592,1.592h41.479c0.879,0,1.592-0.713,1.592-1.592  S71.618,48.409,70.739,48.409z"/><path d="M70.739,63.021H29.261c-0.879,0-1.592,0.713-1.592,1.591c0,0.88,0.713,1.592,1.592,1.592h41.479  c0.879,0,1.592-0.712,1.592-1.592C72.331,63.734,71.618,63.021,70.739,63.021z"/><path d="M50,5C25.187,5,5,25.187,5,50c0,24.813,20.186,45,45,45c24.813,0,45-20.188,45-45C95,25.187,74.813,5,50,5z M50,91.816  C26.943,91.816,8.183,73.057,8.183,50C8.183,26.943,26.943,8.183,50,8.183c23.057,0,41.816,18.76,41.816,41.817  C91.816,73.057,73.057,91.816,50,91.816z"/><text x="0" y="115" fill="#000000" font-size="5px" font-weight="bold" font-family="'Helvetica Neue', Helvetica, Arial-Unicode, Arial, Sans-serif">Created by Milinda Courey</text><text x="0" y="120" fill="#000000" font-size="5px" font-weight="bold" font-family="'Helvetica Neue', Helvetica, Arial-Unicode, Arial, Sans-serif">from the Noun Project</text></svg>